<svg xmlns="http://www.w3.org/2000/svg" viewBox="0 0 240 140" fill="none">
  <!-- Zeekaart -->
  <rect x="18" y="18" width="96" height="74" rx="5" stroke="white" stroke-width="2" fill="white" fill-opacity="0.12"/>
  <line x1="18" y1="55" x2="114" y2="55" stroke="white" stroke-width="0.8" stroke-opacity="0.35"/>
  <line x1="66" y1="18" x2="66" y2="92" stroke="white" stroke-width="0.8" stroke-opacity="0.35"/>
  <!-- Route -->
  <circle cx="36" cy="36" r="5" fill="white"/>
  <circle cx="66" cy="64" r="5" fill="white"/>
  <circle cx="97" cy="44" r="5" fill="white"/>
  <line x1="36" y1="36" x2="66" y2="64" stroke="white" stroke-width="1.8" stroke-dasharray="5 4"/>
  <line x1="66" y1="64" x2="97" y2="44" stroke="white" stroke-width="1.8" stroke-dasharray="5 4"/>
  <!-- Kompas -->
  <circle cx="178" cy="66" r="44" stroke="white" stroke-width="2" fill="white" fill-opacity="0.1"/>
  <circle cx="178" cy="66" r="36" stroke="white" stroke-width="0.6" stroke-opacity="0.3"/>
  <!-- Naald noord -->
  <polygon points="178,26 173,66 178,62" fill="white"/>
  <!-- Naald zuid -->
  <polygon points="178,106 183,66 178,70" fill="white" fill-opacity="0.4"/>
  <!-- N markering -->
  <text x="173" y="20" font-size="11" fill="white" font-family="sans-serif" font-weight="700">N</text>
  <!-- Streepjes -->
  <line x1="178" y1="26" x2="178" y2="32" stroke="white" stroke-width="2"/>
  <line x1="178" y1="100" x2="178" y2="106" stroke="white" stroke-width="2"/>
  <line x1="136" y1="66" x2="142" y2="66" stroke="white" stroke-width="2"/>
  <line x1="214" y1="66" x2="220" y2="66" stroke="white" stroke-width="2"/>
  <!-- Verbinding kaart-kompas -->
  <line x1="114" y1="55" x2="134" y2="66" stroke="white" stroke-width="1" stroke-dasharray="3 3" stroke-opacity="0.5"/>
</svg>
