<svg xmlns="http://www.w3.org/2000/svg" viewBox="0 0 240 140" fill="none">
  <!-- Romp boot -->
  <path d="M 28 108 Q 120 128 212 108 L 202 118 Q 120 138 38 118 Z" stroke="white" stroke-width="1.5" fill="white" fill-opacity="0.15"/>
  <!-- Dek -->
  <line x1="38" y1="108" x2="202" y2="108" stroke="white" stroke-width="2"/>
  <!-- Mast -->
  <line x1="120" y1="22" x2="120" y2="108" stroke="white" stroke-width="3"/>
  <!-- Zeil -->
  <path d="M 120 28 L 120 98 L 68 82 Z" stroke="white" stroke-width="1.8" fill="white" fill-opacity="0.2"/>
  <!-- Giek -->
  <line x1="120" y1="98" x2="68" y2="82" stroke="white" stroke-width="1.8"/>
  <!-- Vlaggenlijn -->
  <line x1="120" y1="22" x2="148" y2="28" stroke="white" stroke-width="1" stroke-opacity="0.6"/>
  <polygon points="148,28 133,35 135,22" fill="white" fill-opacity="0.7"/>
  <!-- Figuur 1 (links) -->
  <circle cx="82" cy="96" r="7" stroke="white" stroke-width="1.8" fill="white" fill-opacity="0.2"/>
  <line x1="82" y1="103" x2="82" y2="108" stroke="white" stroke-width="2"/>
  <line x1="78" y1="100" x2="74" y2="104" stroke="white" stroke-width="1.5"/>
  <line x1="86" y1="100" x2="90" y2="104" stroke="white" stroke-width="1.5"/>
  <!-- Figuur 2 (midden) -->
  <circle cx="120" cy="96" r="7" stroke="white" stroke-width="1.8" fill="white" fill-opacity="0.2"/>
  <line x1="120" y1="103" x2="120" y2="108" stroke="white" stroke-width="2"/>
  <line x1="116" y1="100" x2="112" y2="104" stroke="white" stroke-width="1.5"/>
  <line x1="124" y1="100" x2="128" y2="104" stroke="white" stroke-width="1.5"/>
  <!-- Figuur 3 (rechts) -->
  <circle cx="158" cy="96" r="7" stroke="white" stroke-width="1.8" fill="white" fill-opacity="0.2"/>
  <line x1="158" y1="103" x2="158" y2="108" stroke="white" stroke-width="2"/>
  <line x1="154" y1="100" x2="150" y2="104" stroke="white" stroke-width="1.5"/>
  <line x1="162" y1="100" x2="166" y2="104" stroke="white" stroke-width="1.5"/>
  <!-- Golven -->
  <path d="M 8 122 Q 28 115 48 122 Q 68 129 88 122 Q 108 115 128 122 Q 148 129 168 122 Q 188 115 208 122 Q 228 129 240 124" stroke="white" stroke-width="1.5" stroke-opacity="0.6"/>
</svg>
